<?xml version="1.0" standalone="no"?>
<!DOCTYPE svg PUBLIC "-//W3C//DTD SVG 20010904//EN"
 "http://www.w3.org/TR/2001/REC-SVG-20010904/DTD/svg10.dtd">
<svg version="1.0" xmlns="http://www.w3.org/2000/svg"
 width="600.000000pt" height="600.000000pt" viewBox="0 0 600.000000 600.000000"
 preserveAspectRatio="xMidYMid meet">
<metadata>
Created by potrace 1.11, written by Peter Selinger 2001-2013
</metadata>
<g transform="translate(0.000000,600.000000) scale(0.100000,-0.100000)"
fill="#000000" stroke="none">
<path d="M2650 5984 c-1343 -161 -2413 -1196 -2622 -2537 -29 -190 -36 -579
-14 -777 81 -704 390 -1333 897 -1825 156 -151 255 -231 444 -356 355 -237
760 -392 1220 -466 139 -23 679 -26 815 -5 524 79 943 245 1350 533 195 137
446 373 597 559 327 405 548 901 635 1431 20 118 22 172 23 449 0 336 -4 388
-55 630 -122 581 -411 1105 -842 1526 -484 473 -1089 762 -1758 839 -167 19
-529 18 -690 -1z m1716 -1338 c9 -23 -26 -80 -171 -281 -161 -223 -223 -301
-325 -409 -73 -77 -362 -317 -408 -339 -20 -9 -28 -5 -69 36 l-47 46 49 73
c159 240 393 481 673 694 101 76 199 151 219 167 39 30 71 35 79 13z m-573
-346 c-51 -50 -104 -95 -118 -100 -17 -6 -398 -10 -1053 -10 -565 0 -1033 -4
-1040 -8 -10 -7 -12 -153 -10 -698 l3 -689 175 -5 c96 -3 183 -9 193 -14 37
-18 49 -62 45 -172 -2 -84 0 -107 12 -114 24 -15 1393 -13 1408 2 9 9 12 101
12 355 0 234 4 350 11 367 25 54 40 56 503 56 l426 0 5 23 c3 12 4 218 3 457
l-3 435 -125 5 c-69 3 -120 8 -113 13 6 4 37 44 69 90 32 45 62 86 68 90 19
14 170 1 210 -18 21 -10 50 -36 64 -58 l27 -41 5 -495 5 -496 85 -5 c92 -5
117 -16 143 -62 16 -27 17 -99 17 -901 0 -857 0 -873 -20 -905 -39 -63 -28
-62 -686 -62 -533 0 -600 2 -631 16 -49 24 -68 58 -68 123 l0 56 -537 3 -538
2 0 74 0 75 148 137 c81 75 147 144 147 153 0 14 -32 16 -303 19 -193 1 -310
-1 -322 -8 -18 -10 -19 -26 -22 -301 l-3 -291 -33 -29 -32 -29 -335 0 -335 0
-32 29 -33 29 0 671 0 670 23 23 c17 18 37 24 90 28 l67 5 5 730 c5 797 2 757
63 813 56 53 14 51 1277 51 l1175 0 -92 -89z m-446 -692 c28 -24 53 -52 55
-63 7 -34 -48 -129 -101 -178 -37 -32 -85 -59 -172 -96 -66 -28 -127 -51 -135
-51 -19 0 -18 30 7 122 32 117 104 228 174 266 39 22 86 40 106 41 8 1 38 -18
66 -41z"/>
<path d="M3527 3133 c-4 -3 -7 -352 -7 -774 0 -690 2 -767 16 -773 9 -3 271
-6 584 -6 504 0 570 2 584 16 14 14 16 96 16 760 0 495 -3 752 -10 765 -10 18
-28 19 -594 19 -320 0 -586 -3 -589 -7z"/>
<path d="M1473 2750 c-28 -11 -32 -64 -7 -74 30 -11 219 -7 232 6 18 18 14 56
-7 68 -24 12 -187 12 -218 0z"/>
<path d="M1237 2633 c-4 -3 -7 -221 -7 -483 0 -357 3 -479 12 -488 9 -9 99
-12 345 -12 318 0 333 1 343 19 15 30 14 943 -2 959 -9 9 -100 12 -348 12
-185 0 -340 -3 -343 -7z"/>
<path d="M2904 2376 c-48 -21 -86 -77 -86 -128 -3 -157 195 -213 271 -77 69
122 -56 261 -185 205z"/>
<path d="M3310 1981 c0 -21 73 -91 95 -91 18 0 21 60 5 91 -15 28 -100 28
-100 0z"/>
<path d="M1526 1564 c-58 -59 -20 -154 63 -154 32 0 44 6 65 31 35 41 34 83
-3 120 -39 38 -88 40 -125 3z"/>
<path d="M4075 1548 c-62 -34 -74 -110 -26 -159 52 -51 128 -33 157 37 12 29
12 39 0 68 -22 53 -85 79 -131 54z"/>
</g>
</svg>
